<svg width="407" height="208" viewBox="0 0 407 208" fill="none" xmlns="http://www.w3.org/2000/svg">
<g filter="url(#filter0_d_102_12011)">
<path fill-rule="evenodd" clip-rule="evenodd" d="M65 36C51.1929 36 40 47.1929 40 61V122C40 135.807 51.1929 147 65 147H116.664C115.864 152.68 111.973 159.345 101 163.542C110.834 165.093 131.913 163.43 146.29 147H342C355.807 147 367 135.807 367 122V61C367 47.1929 355.807 36 342 36H65Z" fill="white"/>
<path d="M80.1953 82.332H77.377V99.4707H80.1953V91.8789H83.3945V89.543H80.1953V82.332ZM62.1172 87.1309H75.7266V84.8711H70.3438V82.3066H67.5254V84.8711H62.1172V87.1309ZM63.2852 92.4629C63.2852 95.0908 65.583 96.8047 68.9219 96.8047C72.2354 96.8047 74.5205 95.0908 74.5332 92.4629C74.5205 89.8223 72.2354 88.0703 68.9219 88.0703C65.583 88.0703 63.2852 89.8223 63.2852 92.4629ZM65.4941 104.803H81.1094V102.518H68.3125V98.125H65.4941V104.803ZM66.0273 92.4629C66.0146 91.0664 67.1826 90.2539 68.9219 90.2539C70.6611 90.2539 71.8418 91.0664 71.8418 92.4629C71.8418 93.8467 70.6611 94.6338 68.9219 94.6211C67.1826 94.6338 66.0146 93.8467 66.0273 92.4629ZM101.904 83.5508H91.6211V93.123H93.4746C98.3623 93.1357 101.155 93.0342 104.24 92.3359L103.936 90.1523C101.092 90.7236 98.5908 90.8887 94.4141 90.9141V85.8105H101.904V83.5508ZM93.8301 97.0332H106.018V98.7344H93.8555V104.98H109.547V102.695H96.6484V100.867H108.836V94.7734H93.8301V97.0332ZM106.018 93.7832H108.836V89.1367H112.035V86.8262H108.836V82.3066H106.018V93.7832ZM133.008 82.3066H130.291V105.26H133.008V82.3066ZM113.432 92.2344C113.432 97.2998 115.387 100.448 118.383 100.436C121.227 100.448 123.144 97.7061 123.41 93.2246H125.594V104.143H128.285V82.7129H125.594V90.9395H123.385C123.055 86.6484 121.163 84.0459 118.383 84.0586C115.387 84.0459 113.432 87.1816 113.432 92.2344ZM116.047 92.2344C116.034 88.6543 116.923 86.7119 118.383 86.7246C119.906 86.7119 120.808 88.6543 120.82 92.2344C120.808 95.8271 119.906 97.7568 118.383 97.7441C116.923 97.7568 116.034 95.8271 116.047 92.2344ZM162.791 95.2305H141.818V97.5664H150.857V105.26H153.65V97.5664H162.791V95.2305ZM144.027 88.2734C144.015 91.3838 147.366 93.3643 152.254 93.3516C157.142 93.3643 160.519 91.3838 160.531 88.2734C160.519 85.125 157.142 83.1318 152.254 83.1191C147.366 83.1318 144.015 85.125 144.027 88.2734ZM146.922 88.2734C146.909 86.4707 149.017 85.4043 152.254 85.4043C155.504 85.4043 157.611 86.4707 157.611 88.2734C157.611 90.0635 155.504 91.1172 152.254 91.1172C149.017 91.1172 146.909 90.0635 146.922 88.2734ZM183.434 82.3066H180.641V105.285H183.434V82.3066ZM165.559 86.5977H173.506V90.6855H165.584V99.8516H167.59C171.716 99.8643 175.144 99.7119 179.041 99.0391L178.787 96.7285C175.207 97.3252 172.097 97.5156 168.479 97.541V92.9199H176.375V84.3125H165.559V86.5977ZM212.074 82.3066H209.256V105.26H212.074V82.3066ZM193.057 98.8867L193.463 101.223C197.589 101.223 203.073 101.159 208.113 100.309L207.91 98.2012C205.993 98.4551 203.962 98.6201 201.943 98.709V96.6904C204.521 96.2715 206.209 94.71 206.209 92.5391C206.209 89.9492 203.873 88.2354 200.496 88.2227C197.157 88.2354 194.859 89.9492 194.859 92.5391C194.859 94.7227 196.548 96.2969 199.125 96.7031V98.8105C196.954 98.874 194.885 98.874 193.057 98.8867ZM193.539 87.1816H207.504V84.9473H201.943V82.3828H199.125V84.9473H193.539V87.1816ZM197.551 92.5391C197.525 91.2061 198.757 90.3936 200.496 90.3809C202.286 90.3936 203.505 91.2061 203.492 92.5391C203.505 93.8594 202.286 94.6338 200.496 94.6211C198.757 94.6338 197.525 93.8594 197.551 92.5391ZM223.627 87.8164V84.1602H220.809V87.8164C220.796 92.0566 218.688 96.4492 214.994 98.2012L216.721 100.461C219.349 99.1406 221.228 96.5508 222.23 93.4277C223.208 96.3477 224.998 98.7725 227.486 100.029L229.213 97.7695C225.658 96.0557 223.602 91.917 223.627 87.8164ZM230.584 105.26H233.402V93.707H236.932V91.2949H233.402V82.3066H230.584V105.26ZM245.336 83.9062C241.73 83.8936 239.026 86.1914 239.039 89.4414C239.026 92.7041 241.73 94.9893 245.336 95.002C248.979 94.9893 251.633 92.7041 251.658 89.4414C251.633 86.1914 248.979 83.8936 245.336 83.9062ZM237.998 98.1758L238.354 100.486C242.403 100.486 247.913 100.448 253.055 99.4707L252.826 97.4141C247.862 98.125 242.137 98.1758 237.998 98.1758ZM241.832 89.4414C241.819 87.5371 243.33 86.3438 245.336 86.3438C247.38 86.3438 248.878 87.5371 248.891 89.4414C248.878 91.3584 247.367 92.5391 245.336 92.5391C243.33 92.5391 241.819 91.3584 241.832 89.4414ZM254.197 105.285H257.016V82.3066H254.197V105.285ZM274.967 86.2422V85.9629H279.715V83.7031H267.324V85.9629H272.098V86.2676C272.098 89.251 270.143 92.2979 266.486 93.5039L267.934 95.7383C270.663 94.8242 272.567 92.8945 273.57 90.4951C274.573 92.6533 276.389 94.3926 278.953 95.2305L280.375 93.0469C276.82 91.8535 274.967 89.0479 274.967 86.2422ZM270.117 99.3438H282.939V105.26H285.758V97.084H270.117V99.3438ZM279.029 90.3047H282.939V95.9922H285.758V82.3066H282.939V87.9941H279.029V90.3047ZM297.234 88.832V86.9023H302.033V84.5664H289.414V86.9023H294.416V88.832C294.403 92.6533 292.182 96.9443 288.525 98.6836L290.176 100.893C292.816 99.623 294.822 96.9316 295.863 93.7832C296.892 96.6523 298.809 99.1152 301.398 100.334L302.973 98.0996C299.354 96.4111 297.222 92.374 297.234 88.832ZM304.166 105.26H306.984V93.6055H310.514V91.2441H306.984V82.3066H304.166V105.26ZM330.064 88.8066H316.963V83.1445H314.17V91.041H330.064V88.8066ZM311.453 95.9414H332.426V93.707H311.453V95.9414ZM313.967 104.727H330.217V102.441H316.785V97.9727H313.967V104.727ZM337.834 97.3633V97.5918H340.805V97.3633C340.83 95.459 341.439 94.583 342.912 93.6816C344.562 92.7041 345.591 91.3584 345.604 89.2891C345.591 86.2676 343.242 84.3633 339.814 84.3633C336.679 84.3633 334.14 86.1025 334.051 89.5176H337.225C337.313 87.8164 338.532 87.0039 339.789 87.0039C341.173 87.0039 342.29 87.918 342.277 89.3398C342.29 90.6094 341.452 91.46 340.373 92.1582C338.773 93.1357 337.859 94.126 337.834 97.3633ZM337.428 101.223C337.415 102.314 338.316 103.203 339.408 103.203C340.462 103.203 341.363 102.314 341.363 101.223C341.363 100.156 340.462 99.2803 339.408 99.2676C338.316 99.2803 337.415 100.156 337.428 101.223Z" fill="#3C52BB"/>
</g>
<defs>
<filter id="filter0_d_102_12011" x="0" y="0" width="407" height="208" filterUnits="userSpaceOnUse" color-interpolation-filters="sRGB">
<feFlood flood-opacity="0" result="BackgroundImageFix"/>
<feColorMatrix in="SourceAlpha" type="matrix" values="0 0 0 0 0 0 0 0 0 0 0 0 0 0 0 0 0 0 127 0" result="hardAlpha"/>
<feOffset dy="4"/>
<feGaussianBlur stdDeviation="20"/>
<feComposite in2="hardAlpha" operator="out"/>
<feColorMatrix type="matrix" values="0 0 0 0 0 0 0 0 0 0 0 0 0 0 0 0 0 0 0.15 0"/>
<feBlend mode="normal" in2="BackgroundImageFix" result="effect1_dropShadow_102_12011"/>
<feBlend mode="normal" in="SourceGraphic" in2="effect1_dropShadow_102_12011" result="shape"/>
</filter>
</defs>
</svg>
