<svg width="407" height="209" viewBox="0 0 407 209" fill="none" xmlns="http://www.w3.org/2000/svg">
<g filter="url(#filter0_d_102_12021)">
<path fill-rule="evenodd" clip-rule="evenodd" d="M65 36C51.1929 36 40 47.1929 40 61V122C40 135.807 51.1929 147 65 147H105.67C104.884 152.721 101.002 159.446 90 163.677C99.8426 165.238 120.951 163.561 135.328 147H342C355.807 147 367 135.807 367 122V61C367 47.1929 355.807 36 342 36H65Z" fill="white"/>
<path d="M82.2803 82.332H79.4619V95.1543H82.2803V89.873H85.4795V87.5879H82.2803V82.332ZM64.4307 89.0098C64.418 92.209 67.084 94.4561 70.626 94.4434C74.1553 94.4561 76.7959 92.209 76.8213 89.0098C76.7959 85.7852 74.1553 83.5381 70.626 83.5508C67.084 83.5381 64.418 85.7852 64.4307 89.0098ZM67.1475 104.904H83.0674V102.619H79.8428V98.4551H82.7627V96.2207H67.2998V98.4551H70.2959V102.619H67.1475V104.904ZM67.1982 89.0098C67.1855 87.0928 68.6582 85.8994 70.626 85.9121C72.5811 85.8994 74.041 87.0928 74.0537 89.0098C74.041 90.9014 72.5811 92.1074 70.626 92.1074C68.6582 92.1074 67.1855 90.9014 67.1982 89.0098ZM73.0381 102.619V98.4551H77.1006V102.619H73.0381ZM97.083 83.6016C92.2715 83.6016 88.5645 86.1787 88.5771 90.0762C88.5645 94.0244 92.2715 96.6016 97.083 96.6016C101.92 96.6016 105.652 94.0244 105.64 90.0762C105.652 86.1787 101.92 83.6016 97.083 83.6016ZM86.6475 102.365H107.62V100.055H86.6475V102.365ZM91.2939 90.0762C91.2812 87.5371 93.7441 85.8613 97.083 85.8867C100.435 85.8613 102.872 87.5371 102.872 90.0762C102.872 92.6787 100.435 94.2783 97.083 94.291C93.7441 94.2783 91.2812 92.6787 91.2939 90.0762ZM130.091 100.258H120.95V96.5254H128.136V94.2148H114.425V91.2441H127.603V83.8809H111.556V86.166H124.81V89.0098H111.606V96.5254H118.157V100.258H109.118V102.594H130.091V100.258ZM158.706 95.2305H137.733V97.5664H146.772V105.26H149.565V97.5664H158.706V95.2305ZM139.942 88.2734C139.93 91.3838 143.281 93.3643 148.169 93.3516C153.057 93.3643 156.434 91.3838 156.446 88.2734C156.434 85.125 153.057 83.1318 148.169 83.1191C143.281 83.1318 139.93 85.125 139.942 88.2734ZM142.837 88.2734C142.824 86.4707 144.932 85.4043 148.169 85.4043C151.419 85.4043 153.526 86.4707 153.526 88.2734C153.526 90.0635 151.419 91.1172 148.169 91.1172C144.932 91.1172 142.824 90.0635 142.837 88.2734ZM179.349 82.3066H176.556V105.285H179.349V82.3066ZM161.474 86.5977H169.421V90.6855H161.499V99.8516H163.505C167.631 99.8643 171.059 99.7119 174.956 99.0391L174.702 96.7285C171.122 97.3252 168.012 97.5156 164.394 97.541V92.9199H172.29V84.3125H161.474V86.5977ZM207.989 82.3066H205.171V105.26H207.989V82.3066ZM188.972 98.8867L189.378 101.223C193.504 101.223 198.988 101.159 204.028 100.309L203.825 98.2012C201.908 98.4551 199.877 98.6201 197.858 98.709V96.6904C200.436 96.2715 202.124 94.71 202.124 92.5391C202.124 89.9492 199.788 88.2354 196.411 88.2227C193.072 88.2354 190.774 89.9492 190.774 92.5391C190.774 94.7227 192.463 96.2969 195.04 96.7031V98.8105C192.869 98.874 190.8 98.874 188.972 98.8867ZM189.454 87.1816H203.419V84.9473H197.858V82.3828H195.04V84.9473H189.454V87.1816ZM193.466 92.5391C193.44 91.2061 194.672 90.3936 196.411 90.3809C198.201 90.3936 199.42 91.2061 199.407 92.5391C199.42 93.8594 198.201 94.6338 196.411 94.6211C194.672 94.6338 193.44 93.8594 193.466 92.5391ZM219.542 87.8164V84.1602H216.724V87.8164C216.711 92.0566 214.604 96.4492 210.909 98.2012L212.636 100.461C215.264 99.1406 217.143 96.5508 218.146 93.4277C219.123 96.3477 220.913 98.7725 223.401 100.029L225.128 97.7695C221.573 96.0557 219.517 91.917 219.542 87.8164ZM226.499 105.26H229.317V93.707H232.847V91.2949H229.317V82.3066H226.499V105.26ZM241.251 83.9062C237.646 83.8936 234.941 86.1914 234.954 89.4414C234.941 92.7041 237.646 94.9893 241.251 95.002C244.895 94.9893 247.548 92.7041 247.573 89.4414C247.548 86.1914 244.895 83.8936 241.251 83.9062ZM233.913 98.1758L234.269 100.486C238.318 100.486 243.828 100.448 248.97 99.4707L248.741 97.4141C243.777 98.125 238.052 98.1758 233.913 98.1758ZM237.747 89.4414C237.734 87.5371 239.245 86.3438 241.251 86.3438C243.295 86.3438 244.793 87.5371 244.806 89.4414C244.793 91.3584 243.282 92.5391 241.251 92.5391C239.245 92.5391 237.734 91.3584 237.747 89.4414ZM250.112 105.285H252.931V82.3066H250.112V105.285ZM274.411 84.2109V83.043H271.44V84.2109C271.44 87.1182 268.216 90.0254 263.366 90.6602L264.483 92.9453C268.343 92.3613 271.428 90.4443 272.926 87.8545C274.424 90.4443 277.521 92.3613 281.419 92.9453L282.536 90.6602C277.636 90.0254 274.398 87.0928 274.411 84.2109ZM262.452 97.2617H271.466V105.26H274.259V97.2617H283.374V94.9258H262.452V97.2617ZM304.144 82.3066H301.325V85.8105H296.704V84.0332H285.913V94.418H296.704V92.6406H301.325V95.8145H304.144V82.3066ZM288.579 100.842C288.554 103.635 291.537 105.234 296.374 105.234C301.236 105.234 304.207 103.635 304.22 100.842C304.207 98.0488 301.236 96.4111 296.374 96.4238C291.537 96.4111 288.554 98.0488 288.579 100.842ZM288.731 92.1582V86.2676H293.911V92.1582H288.731ZM291.372 100.842C291.359 99.3564 293.188 98.5947 296.374 98.582C299.586 98.5947 301.401 99.3564 301.401 100.842C301.401 102.264 299.586 103.051 296.374 103.051C293.188 103.051 291.359 102.264 291.372 100.842ZM296.704 90.3555V88.0449H301.325V90.3555H296.704ZM328.315 94.1641H307.394V96.4238H328.315V94.1641ZM309.552 87.6895C309.552 90.6094 312.814 92.3867 317.829 92.3867C322.831 92.3867 326.094 90.6094 326.106 87.6895C326.094 84.7822 322.831 83.0303 317.829 83.043C312.814 83.0303 309.552 84.7822 309.552 87.6895ZM309.983 104.803H325.954V102.518H312.802V98.125H309.983V104.803ZM312.497 87.6895C312.472 86.1787 314.49 85.3027 317.829 85.3027C321.181 85.3027 323.187 86.1787 323.187 87.6895C323.187 89.251 321.181 90.0889 317.829 90.0762C314.49 90.0889 312.472 89.251 312.497 87.6895ZM333.749 97.3633V97.5918H336.72V97.3633C336.745 95.459 337.354 94.583 338.827 93.6816C340.478 92.7041 341.506 91.3584 341.519 89.2891C341.506 86.2676 339.157 84.3633 335.729 84.3633C332.594 84.3633 330.055 86.1025 329.966 89.5176H333.14C333.229 87.8164 334.447 87.0039 335.704 87.0039C337.088 87.0039 338.205 87.918 338.192 89.3398C338.205 90.6094 337.367 91.46 336.288 92.1582C334.688 93.1357 333.774 94.126 333.749 97.3633ZM333.343 101.223C333.33 102.314 334.231 103.203 335.323 103.203C336.377 103.203 337.278 102.314 337.278 101.223C337.278 100.156 336.377 99.2803 335.323 99.2676C334.231 99.2803 333.33 100.156 333.343 101.223Z" fill="#3C52BB"/>
</g>
<defs>
<filter id="filter0_d_102_12021" x="0" y="0" width="407" height="208.138" filterUnits="userSpaceOnUse" color-interpolation-filters="sRGB">
<feFlood flood-opacity="0" result="BackgroundImageFix"/>
<feColorMatrix in="SourceAlpha" type="matrix" values="0 0 0 0 0 0 0 0 0 0 0 0 0 0 0 0 0 0 127 0" result="hardAlpha"/>
<feOffset dy="4"/>
<feGaussianBlur stdDeviation="20"/>
<feComposite in2="hardAlpha" operator="out"/>
<feColorMatrix type="matrix" values="0 0 0 0 0 0 0 0 0 0 0 0 0 0 0 0 0 0 0.15 0"/>
<feBlend mode="normal" in2="BackgroundImageFix" result="effect1_dropShadow_102_12021"/>
<feBlend mode="normal" in="SourceGraphic" in2="effect1_dropShadow_102_12021" result="shape"/>
</filter>
</defs>
</svg>
