<svg width="383" height="209" viewBox="0 0 383 209" fill="none" xmlns="http://www.w3.org/2000/svg">
<g filter="url(#filter0_d_102_12016)">
<path fill-rule="evenodd" clip-rule="evenodd" d="M318 36C331.807 36 343 47.1929 343 61V122C343 135.807 331.807 147 318 147H265.33C266.116 152.721 269.998 159.446 281 163.677C271.157 165.238 250.049 163.561 235.672 147H65C51.1929 147 40 135.807 40 122V61C40 47.1929 51.1929 36 65 36H318Z" fill="white"/>
<path d="M86.7764 83.1348H78.8545V81.0527H76.0361V83.1348H68.0381V85.3184H86.7764V83.1348ZM66.9971 96.2109H87.9189V93.9766H66.9971V96.2109ZM69.2568 99.9941H82.4092V104.26H85.2529V97.8359H69.2568V99.9941ZM69.8154 89.4316C69.8154 91.6787 72.5703 92.8213 77.4326 92.834C82.3076 92.8213 85.0625 91.6787 85.0752 89.4316C85.0625 87.1846 82.3076 86.042 77.4326 86.0547C72.5703 86.042 69.8154 87.1846 69.8154 89.4316ZM72.71 89.4316C72.6973 88.4922 74.2715 87.9971 77.4326 87.9844C80.6064 87.9971 82.168 88.4922 82.1807 89.4316C82.168 90.3711 80.6064 90.8535 77.4326 90.8535C74.2715 90.8535 72.6973 90.3711 72.71 89.4316ZM97.6943 87.832V85.9023H102.493V83.5664H89.874V85.9023H94.876V87.832C94.8633 91.6533 92.6416 95.9443 88.9854 97.6836L90.6357 99.8926C93.2764 98.623 95.2822 95.9316 96.3232 92.7832C97.3516 95.6523 99.2686 98.1152 101.858 99.334L103.433 97.0996C99.8145 95.4111 97.6816 91.374 97.6943 87.832ZM104.626 104.26H107.444V92.6055H110.974V90.2441H107.444V81.3066H104.626V104.26ZM130.245 81.3066H127.401V104.26H130.245V92.8086H133.419V90.4727H130.245V81.3066ZM111.608 97.6836L113.817 99.2832C117.956 94.8018 118.807 89.7363 118.819 83.7188H112.522V86.0293H116.128C115.899 90.6123 114.833 94.2559 111.608 97.6836ZM118.108 99.207L120.368 100.756C124.507 95.7793 125.154 89.8887 125.167 83.7188H119.581V86.0293H122.488C122.311 91.0059 121.384 95.2969 118.108 99.207ZM143.067 87.832V85.9023H148.095V83.5664H135.146V85.9023H140.198V87.832C140.186 91.7295 137.926 96.0078 134.308 97.6836L135.933 99.8926C138.611 98.623 140.63 95.9824 141.684 92.834C142.737 95.7539 144.718 98.1533 147.435 99.334L148.983 97.0996C145.276 95.5508 143.067 91.5898 143.067 87.832ZM150.659 104.26H153.503V81.3066H150.659V104.26ZM164.319 82.9062C160.714 82.8936 158.01 85.1914 158.022 88.4414C158.01 91.7041 160.714 93.9893 164.319 94.002C167.963 93.9893 170.616 91.7041 170.642 88.4414C170.616 85.1914 167.963 82.8936 164.319 82.9062ZM156.981 97.1758L157.337 99.4863C161.387 99.4863 166.896 99.4482 172.038 98.4707L171.81 96.4141C166.846 97.125 161.12 97.1758 156.981 97.1758ZM160.815 88.4414C160.803 86.5371 162.313 85.3438 164.319 85.3438C166.363 85.3438 167.861 86.5371 167.874 88.4414C167.861 90.3584 166.351 91.5391 164.319 91.5391C162.313 91.5391 160.803 90.3584 160.815 88.4414ZM173.181 104.285H175.999V81.3066H173.181V104.285ZM204.157 91.7422H190.878V85.2676H203.979V83.0078H188.06V93.9766H194.56V99.2324H185.521V101.543H206.493V99.2324H197.353V93.9766H204.157V91.7422ZM219.163 82.5508H208.88V92.123H210.733C215.621 92.1357 218.414 92.0342 221.499 91.3359L221.194 89.1523C218.351 89.7236 215.85 89.8887 211.673 89.9141V84.8105H219.163V82.5508ZM211.089 96.0332H223.276V97.7344H211.114V103.98H226.806V101.695H213.907V99.8672H226.095V93.7734H211.089V96.0332ZM223.276 92.7832H226.095V88.1367H229.294V85.8262H226.095V81.3066H223.276V92.7832ZM255.802 81.3066H252.958V104.26H255.802V81.3066ZM236.784 97.9375L238.257 100.197C246.293 96.376 248.946 90.5742 248.946 83.7441H237.952V85.9785H246.077C245.569 91.1963 242.802 95.0811 236.784 97.9375ZM277.206 81.3066H274.337V97.8613H277.206V90.2695H280.405V87.9082H277.206V81.3066ZM259.026 93.2402L260.194 95.4746C266.986 93.5068 270.973 89.1523 270.96 83.0586H259.991V85.3691H267.875C267.393 88.8604 264.282 91.7168 259.026 93.2402ZM262.454 103.803H278.069V101.518H265.323V96.1602H262.454V103.803ZM302.495 93.1641H281.573V95.4238H302.495V93.1641ZM283.731 86.6895C283.731 89.6094 286.994 91.3867 292.009 91.3867C297.011 91.3867 300.273 89.6094 300.286 86.6895C300.273 83.7822 297.011 82.0303 292.009 82.043C286.994 82.0303 283.731 83.7822 283.731 86.6895ZM284.163 103.803H300.134V101.518H286.981V97.125H284.163V103.803ZM286.677 86.6895C286.651 85.1787 288.67 84.3027 292.009 84.3027C295.36 84.3027 297.366 85.1787 297.366 86.6895C297.366 88.251 295.36 89.0889 292.009 89.0762C288.67 89.0889 286.651 88.251 286.677 86.6895ZM307.929 96.3633V96.5918H310.899V96.3633C310.925 94.459 311.534 93.583 313.007 92.6816C314.657 91.7041 315.686 90.3584 315.698 88.2891C315.686 85.2676 313.337 83.3633 309.909 83.3633C306.773 83.3633 304.234 85.1025 304.146 88.5176H307.319C307.408 86.8164 308.627 86.0039 309.884 86.0039C311.268 86.0039 312.385 86.918 312.372 88.3398C312.385 89.6094 311.547 90.46 310.468 91.1582C308.868 92.1357 307.954 93.126 307.929 96.3633ZM307.522 100.223C307.51 101.314 308.411 102.203 309.503 102.203C310.557 102.203 311.458 101.314 311.458 100.223C311.458 99.1562 310.557 98.2803 309.503 98.2676C308.411 98.2803 307.51 99.1562 307.522 100.223Z" fill="#3C52BB"/>
</g>
<defs>
<filter id="filter0_d_102_12016" x="0" y="0" width="383" height="208.138" filterUnits="userSpaceOnUse" color-interpolation-filters="sRGB">
<feFlood flood-opacity="0" result="BackgroundImageFix"/>
<feColorMatrix in="SourceAlpha" type="matrix" values="0 0 0 0 0 0 0 0 0 0 0 0 0 0 0 0 0 0 127 0" result="hardAlpha"/>
<feOffset dy="4"/>
<feGaussianBlur stdDeviation="20"/>
<feComposite in2="hardAlpha" operator="out"/>
<feColorMatrix type="matrix" values="0 0 0 0 0 0 0 0 0 0 0 0 0 0 0 0 0 0 0.15 0"/>
<feBlend mode="normal" in2="BackgroundImageFix" result="effect1_dropShadow_102_12016"/>
<feBlend mode="normal" in="SourceGraphic" in2="effect1_dropShadow_102_12016" result="shape"/>
</filter>
</defs>
</svg>
