<svg xmlns="http://www.w3.org/2000/svg" xml:space="preserve" width="2000" height="666.66669" viewBox="0 0 2000 666.66669"><defs><clipPath id="a" clipPathUnits="userSpaceOnUse"><path d="M0 500h1500V0H0Z"/></clipPath></defs><g clip-path="url(#a)" transform="matrix(1.33333 0 0 -1.33333 0 666.667)"><path d="M0 0c9.402 0 17.025 7.622 17.025 17.025 0 9.402-7.623 17.024-17.025 17.024h-51.074V0Z" style="fill:#f39700;fill-opacity:1;fill-rule:nonzero;stroke:none" transform="translate(349.358 285.185)"/><path d="M0 0c-11.753 0-21.281-9.528-21.281-21.281 0-11.753 9.528-21.281 21.281-21.281h51.074c35.259 0 63.843-28.583 63.843-63.842 0-35.26-28.584-63.843-63.843-63.843H-63.843c-9.402 0-17.024 7.622-17.024 17.025 0 9.402 7.622 17.024 17.024 17.024H51.074c16.454 0 29.793 13.339 29.793 29.794 0 16.454-13.339 29.793-29.793 29.793H0c-30.558 0-55.33 24.772-55.33 55.33S-30.558 34.049 0 34.049h80.867c-9.402 0-17.024-7.622-17.024-17.024C63.843 7.622 71.465 0 80.867 0Z" style="fill:#e60013;fill-opacity:1;fill-rule:nonzero;stroke:none" transform="translate(132.293 285.185)"/><path d="M0 0c0 9.402-7.622 17.025-17.025 17.025-9.402 0-17.024-7.623-17.024-17.025v-51.074H0Z" style="fill:#f39700;fill-opacity:1;fill-rule:nonzero;stroke:none" transform="translate(298.284 370.309)"/><path d="M0 0c0 9.402 7.622 17.025 17.025 17.025 9.402 0 17.024-7.623 17.024-17.025v127.685h59.587c9.402 0 17.025-7.622 17.025-17.024 0-9.403-7.623-17.025-17.025-17.025H68.099c-9.403 0-17.025-7.622-17.025-17.025 0-9.402 7.622-17.025 17.025-17.025h25.537c28.207 0 51.074 22.867 51.074 51.075 0 28.207-22.867 51.074-51.074 51.074H17.025C7.622 161.735 0 154.113 0 144.71Z" style="fill:#0054a6;fill-opacity:1;fill-rule:nonzero;stroke:none" transform="translate(383.408 225.599)"/><path d="M0 0c0-9.402-7.622-17.025-17.025-17.025-9.402 0-17.024 7.623-17.024 17.025l.135-38.306c0-23.506-19.056-42.561-42.562-42.561-23.506 0-42.562 19.055-42.562 42.561l-.161 38.29c0-9.402-7.616-17.024-17.012-17.024-9.395 0-17.011 7.622-17.011 17.024v-38.29c0-42.311 34.3-76.611 76.611-76.611C-34.3-114.917 0-80.617 0-38.306z" style="fill:#1eb8ce;fill-opacity:1;fill-rule:nonzero;stroke:none" transform="translate(417.457 225.599)"/><path d="M0 0h34.024v-59.586c0 9.402-7.623 17.024-17.025 17.024-9.403 0-17.025-7.622-17.025-17.024z" style="fill:#f39700;fill-opacity:1;fill-rule:nonzero;stroke:none" transform="translate(264.26 285.185)"/><path d="M298.284 285.185h-34.049v34.049h34.049z" style="fill:#990030;fill-opacity:1;fill-rule:nonzero;stroke:none"/><path d="M0 0h-51.1c9.403 0 17.025 7.622 17.025 17.025 0 9.402-7.622 17.024-17.025 17.024H-.026V0" style="fill:#f39700;fill-opacity:1;fill-rule:nonzero;stroke:none" transform="translate(264.26 285.185)"/><path d="M0 0c0-9.402-7.622-17.025-17.025-17.025-9.402 0-17.024 7.623-17.024 17.025 0 9.402 7.622 17.025 17.024 17.025C-7.622 17.025 0 9.402 0 0" style="fill:#002163;fill-opacity:1;fill-rule:nonzero;stroke:none" transform="translate(298.284 225.583)"/><path d="M0 0c0-9.402-7.622-17.025-17.025-17.025-9.402 0-17.024 7.623-17.024 17.025 0 9.402 7.622 17.025 17.024 17.025C-7.622 17.025 0 9.402 0 0" style="fill:#002163;fill-opacity:1;fill-rule:nonzero;stroke:none" transform="translate(417.457 225.599)"/><path d="M0 0c0-9.402-7.622-17.025-17.025-17.025-9.402 0-17.024 7.623-17.024 17.025 0 9.402 7.622 17.025 17.024 17.025C-7.622 17.025 0 9.402 0 0" style="fill:#990030;fill-opacity:1;fill-rule:nonzero;stroke:none" transform="translate(230.185 302.21)"/><path d="M0 0c-1.22 0-2.439.191-3.625.568-13.947 4.431-26.824 14.167-38.272 28.94l-.793 1.024-.793-1.024C-54.952 14.709-67.704 4.978-81.383.587A11.937 11.937 0 0 0-85.03.012c-3.085 0-6.145 1.258-8.397 3.455-2.321 2.265-3.599 5.281-3.596 8.492l.001.384c.004 5.187 3.389 9.725 8.423 11.291 18.239 5.672 31.163 20.058 33.729 37.542l.169 1.149h-29.991c-6.807 0-12.345 5.432-12.345 12.111s5.538 12.112 12.345 12.112H-.323c6.807 0 12.345-5.433 12.345-12.112S6.484 62.325-.323 62.325h-29.984l.169-1.149c2.566-17.483 15.487-31.867 33.719-37.541 5.036-1.567 8.423-6.108 8.427-11.297v-.384c.003-3.215-1.275-6.232-3.6-8.498C6.155 1.26 3.09 0 0 0" style="fill:#002163;fill-opacity:1;fill-rule:nonzero;stroke:none" transform="translate(1045.154 290.818)"/><path d="M0 0c-3.904 0-7.204-3.494-7.204-7.63 0-4.135 3.3-7.63 7.204-7.63h70.328c3.903 0 7.201 3.495 7.201 7.63 0 4.136-3.298 7.63-7.201 7.63zm-6.371-38.898c-17.242 0-31.269 14.026-31.269 31.268 0 17.241 14.027 31.267 31.269 31.267h82.992c17.241 0 31.267-14.026 31.267-31.267 0-17.242-14.026-31.268-31.267-31.268z" style="fill:#002163;fill-opacity:1;fill-rule:nonzero;stroke:none" transform="translate(642.693 255.988)"/><path d="M0 0a4.154 4.154 0 0 1-3.057-1.349 4.16 4.16 0 0 1-1.069-3.169c.189-2.113 2.1-3.768 4.351-3.768h90.497c2.251 0 4.162 1.655 4.351 3.768a4.163 4.163 0 0 1-1.069 3.17A4.157 4.157 0 0 1 90.947 0Zm-2.889-29.767c-14.129 0-25.624 11.494-25.624 25.624 0 14.13 11.495 25.625 25.624 25.625h96.327c14.13 0 25.625-11.495 25.625-25.625s-11.495-25.624-25.625-25.624z" style="fill:#002163;fill-opacity:1;fill-rule:nonzero;stroke:none" transform="translate(1154.553 246.705)"/><path d="M0 0a3.721 3.721 0 0 1-3.717-3.717A3.72 3.72 0 0 1 0-7.433h91.622a3.72 3.72 0 0 1 3.717 3.716A3.721 3.721 0 0 1 91.622 0zm-2.889-27.447c-13.085 0-23.731 10.645-23.731 23.73s10.646 23.731 23.731 23.731h97.002c13.085 0 23.731-10.646 23.731-23.731s-10.646-23.73-23.731-23.73z" style="fill:#002163;fill-opacity:1;fill-rule:nonzero;stroke:none" transform="translate(1154.216 331.267)"/><path d="M0 0c-7.253 0-13.154 5.9-13.154 13.154v67.41c0 7.252 5.901 13.153 13.154 13.153s13.153-5.901 13.153-13.153V55.175h7.382c6.752 0 12.246-5.493 12.246-12.246s-5.494-12.245-12.246-12.245h-7.382v-17.53C13.153 5.9 7.253 0 0 0" style="fill:#002163;fill-opacity:1;fill-rule:nonzero;stroke:none" transform="translate(732.423 290.537)"/><path d="M813.085 240.569h85.287v9.231h-85.287zm-14.252-23.631c-6.479 0-11.751 5.272-11.751 11.752v44.861c0 7.169 5.833 13.001 13.002 13.001 7.169 0 13.001-5.832 13.001-13.001v-2.675h85.287v2.675c0 7.169 5.831 13.001 13.001 13.001 7.168 0 13-5.832 13-13.001V228.69c0-6.48-5.271-11.752-11.751-11.752z" style="fill:#002163;fill-opacity:1;fill-rule:nonzero;stroke:none"/><path d="M0 0c-7.279 0-13.201 5.922-13.201 13.201V32.59h-38.447c-7.239 0-13.129 5.212-13.129 11.619s5.89 11.619 13.129 11.619h95.103c7.239 0 13.129-5.212 13.129-11.619S50.694 32.59 43.455 32.59H13.201V13.201C13.201 5.922 7.28 0 0 0" style="fill:#002163;fill-opacity:1;fill-rule:nonzero;stroke:none" transform="translate(1357.393 258.148)"/><path d="M0 0c-6.166 0-11.449 4.463-12.847 10.854l-.172.789h-21.603c-5.231 0-9.487 5.212-9.487 11.619s4.256 11.62 9.487 11.62h21.421v85.842c0 7.742 5.922 14.04 13.201 14.04 7.28 0 13.201-6.298 13.201-14.04V14.041C13.201 6.299 7.28 0 0 0" style="fill:#002163;fill-opacity:1;fill-rule:nonzero;stroke:none" transform="translate(1435.355 249.49)"/><path d="M0 0c-1.126 0-2.259.155-3.364.462-12.933 3.585-24.247 10.887-34.588 22.325l-.744.823-.744-.823C-49.796 11.334-60.97 4.04-73.6.49a12.554 12.554 0 0 0-3.399-.473H-77c-3.278-.001-6.39 1.284-8.763 3.617a12.455 12.455 0 0 0-3.746 8.95v1.135c0 5.522 3.66 10.37 9.108 12.062 13.444 4.181 24.108 14.8 28.527 28.409l.426 1.313h-26.503c-6.806 0-12.343 5.537-12.343 12.343s5.537 12.343 12.343 12.343h27.303v3.353c0 6.702 5.452 12.153 12.154 12.153 6.701 0 12.152-5.451 12.152-12.153v-3.353H.559c6.806 0 12.343-5.537 12.343-12.343S7.365 55.503.559 55.503h-26.1l.427-1.313c4.418-13.609 15.082-24.23 28.526-28.409 5.448-1.692 9.109-6.54 9.109-12.062v-1.156C12.521 5.636 6.904 0 0 0" style="fill:#002163;fill-opacity:1;fill-rule:nonzero;stroke:none" transform="translate(687.007 292.37)"/><path d="M0 0c-5.348 0-9.699 4.351-9.699 9.699 0 5.347 4.351 9.699 9.699 9.699h53.584l.007.996c.038 5.884 4.855 10.671 10.738 10.671h1.835c5.883 0 10.7-4.787 10.738-10.671l.007-.996h53.584c5.348 0 9.699-4.352 9.699-9.699 0-5.348-4.351-9.699-9.699-9.699Z" style="fill:#002163;fill-opacity:1;fill-rule:nonzero;stroke:none" transform="translate(1134.582 357.863)"/><path d="M0 0c-5.987 0-10.858 4.871-10.858 10.858 0 5.986 4.871 10.857 10.858 10.857h134.425c5.987 0 10.857-4.871 10.857-10.857 0-5.987-4.87-10.858-10.857-10.858Z" style="fill:#002163;fill-opacity:1;fill-rule:nonzero;stroke:none" transform="translate(1132.616 275.424)"/><path d="M0 0a14.824 14.824 0 0 1-10.764-4.667c-2.823-3.005-4.235-6.93-3.976-11.052.487-7.75 7.2-13.822 15.282-13.822h14.347c8.082 0 14.794 6.072 15.282 13.822.259 4.122-1.153 8.047-3.976 11.053A14.827 14.827 0 0 1 15.431 0Zm94.695-61.35c-7.239 0-13.128 5.889-13.128 13.126v21.205H56.716l-.232-.677C50.943-43.844 35.762-54.692 18.71-54.692H-1.904c-21.75 0-40.096 17.216-40.897 38.38-.414 10.946 3.543 21.321 11.143 29.214 7.607 7.9 17.817 12.25 28.749 12.25h20.687c17.452 0 32.989-10.852 38.662-27.004l.236-.67h24.891v21.601c0 7.238 5.889 13.127 13.128 13.127 7.238 0 13.127-5.889 13.127-13.127v-67.303c0-7.237-5.889-13.126-13.127-13.126" style="fill:#002163;fill-opacity:1;fill-rule:nonzero;stroke:none" transform="translate(816.805 351.889)"/><path d="M0 0c-7.28 0-13.201 5.921-13.201 13.2v90.305c0 7.279 5.921 13.201 13.201 13.201 7.279 0 13.201-5.922 13.201-13.201V13.2C13.201 5.921 7.279 0 0 0" style="fill:#002163;fill-opacity:1;fill-rule:nonzero;stroke:none" transform="translate(1085.337 267.429)"/><path d="M0 0c-7.849 0-14.234 6.385-14.234 14.233v35.372c0 6.713 5.462 12.175 12.175 12.175h2.053c6.713 0 12.175-5.462 12.175-12.175V23.029H116.81c6.349 0 11.515-5.165 11.515-11.515C128.325 5.166 123.159 0 116.81 0Z" style="fill:#002163;fill-opacity:1;fill-rule:nonzero;stroke:none" transform="translate(972.661 216.938)"/><path d="M0 0c-7.849 0-14.234 6.385-14.234 14.233v35.372c0 6.713 5.462 12.175 12.175 12.175h2.053c6.713 0 12.174-5.462 12.174-12.175V23.029H116.81c6.349 0 11.514-5.165 11.514-11.515C128.324 5.166 123.159 0 116.81 0Z" style="fill:#002163;fill-opacity:1;fill-rule:nonzero;stroke:none" transform="translate(1320.397 216.938)"/><path d="M0 0a5.08 5.08 0 0 1-5.074-5.073A5.08 5.08 0 0 1 0-10.148h44.249a5.081 5.081 0 0 1 5.074 5.075A5.08 5.08 0 0 1 44.249 0zm-3.771-32.995c-15.467 0-28.05 12.583-28.05 28.049 0 15.468 12.583 28.051 28.05 28.051h52.013c15.466 0 28.049-12.583 28.049-28.049 0-15.468-12.583-28.051-28.049-28.051z" style="fill:#002163;fill-opacity:1;fill-rule:nonzero;stroke:none" transform="translate(1333.783 355.175)"/><path d="M0 0h7.764L3.903 11.625Z" style="fill:#002163;fill-opacity:1;fill-rule:nonzero;stroke:none" transform="translate(875.053 146.35)"/><path d="M0 0c-1.045.706-2.275 1.061-3.689 1.061-1.415 0-2.649-.355-3.7-1.061-1.051-.709-1.867-1.821-2.447-3.337-.58-1.517-.869-3.487-.869-5.914 0-2.386.289-4.313.869-5.782.58-1.468 1.396-2.545 2.447-3.224 1.051-.681 2.285-1.022 3.7-1.022 1.428 0 2.665.341 3.709 1.022 1.045.679 1.851 1.758 2.417 3.234.565 1.475.848 3.4.848 5.772 0 2.439-.286 4.415-.858 5.925C1.854-1.816 1.045-.709 0 0" style="fill:#002163;fill-opacity:1;fill-rule:nonzero;stroke:none" transform="translate(706.548 158.148)"/><path d="M0 0h-5.823v-8.915h5.398c1.577 0 2.827.424 3.751 1.272.923.851 1.384 1.941 1.384 3.277 0 1.347-.444 2.412-1.334 3.193C2.487-.39 1.361 0 0 0" style="fill:#002163;fill-opacity:1;fill-rule:nonzero;stroke:none" transform="translate(763.896 159.148)"/><path d="M1446.765 116.893H925.563v64.194h521.202zm-560.778 19.376-1.735 4.926h-10.533l-1.77-4.941a2.765 2.765 0 0 0-2.603-1.832h-.051a2.765 2.765 0 0 0-2.604 3.696l8.498 23.77a2.665 2.665 0 0 0 2.51 1.768h2.493c1.126 0 2.13-.707 2.509-1.768l8.499-23.77a2.765 2.765 0 1 0-5.213-1.849m-57.09-1.847h-15.425a2.408 2.408 0 0 0-2.408 2.407v24.419a2.408 2.408 0 0 0 2.408 2.408h15.213a2.445 2.445 0 0 0 2.446-2.456v-.081a2.446 2.446 0 0 0-2.446-2.436h-11.696v-7.097h9.825a2.446 2.446 0 1 0 0-4.892h-9.866v-7.238l11.953-.017a2.446 2.446 0 0 0 2.442-2.446v-.125a2.446 2.446 0 0 0-2.446-2.446m-60.867 1.697-4.053 9.565h-5.903v-8.321a2.942 2.942 0 0 0-5.884 0v23.885a2.408 2.408 0 0 0 2.408 2.408h9.925c2.332 0 4.238-.37 5.722-1.112 1.483-.74 2.574-1.769 3.275-3.083.701-1.313 1.051-2.827 1.051-4.54 0-1.536-.24-2.831-.718-3.89-.478-1.058-1.104-1.938-1.879-2.64a10.89 10.89 0 0 0-2.538-1.717l3.701-8.339c.817-1.841-.53-3.913-2.544-3.913a2.783 2.783 0 0 0-2.563 1.697m-53.416 4.873c-1.084-2.238-2.631-3.96-4.639-5.165-2.008-1.207-4.381-1.809-7.117-1.809-2.763 0-5.152.602-7.167 1.809-2.015 1.205-3.572 2.925-4.67 5.156-1.099 2.23-1.648 4.895-1.648 7.995 0 3.114.556 5.797 1.668 8.046 1.112 2.252 2.679 3.988 4.7 5.206 2.022 1.221 4.395 1.83 7.117 1.83 2.709 0 5.068-.605 7.077-1.819 2.008-1.214 3.561-2.944 4.66-5.196 1.098-2.25 1.647-4.94 1.647-8.067 0-3.087-.542-5.749-1.628-7.986m-66.244-5.146-6.932 12.182-4.327-5.217v-5.326a3.063 3.063 0 0 0-6.126 0v23.108a3.063 3.063 0 1 0 6.126 0v-10.32l9.853 12.376a2.67 2.67 0 0 0 2.089 1.007c2.226 0 3.475-2.565 2.101-4.317l-5.491-7.003 7.622-13.726c1.043-1.88-.316-4.188-2.465-4.188a2.82 2.82 0 0 0-2.45 1.424m-50.844-20.908h851.195v68.104H597.526Z" style="fill:#002163;fill-opacity:1;fill-rule:nonzero;stroke:none"/><path d="M0 0a15.71 15.71 0 0 0-4.064.526 12.51 12.51 0 0 0-3.599 1.566 9.257 9.257 0 0 0-2.678 2.599c-.708 1.036-1.178 2.218-.204 3.428.665.827 1.733.799 1.733.799 1.31.007 1.71-.883 1.848-1.288a5.231 5.231 0 0 1 1.172-1.948c.68-.716 1.519-1.255 2.517-1.618.997-.366 2.082-.546 3.255-.546 1.294 0 2.456.178 3.487.535 1.031.356 1.847.871 2.447 1.536.599.668.899 1.474.899 2.417 0 .848-.202 1.57-.607 2.164-.404.591-.98 1.087-1.728 1.485-.748.397-1.647.71-2.699.941l-5.539 1.252c-2.171.458-3.879 1.311-5.126 2.559-1.247 1.245-1.877 2.901-1.89 4.964-.013 1.724.441 3.233 1.364 4.529.923 1.293 2.187 2.299 3.791 3.021 1.605.722 3.43 1.081 5.48 1.081 2.385 0 4.39-.397 6.015-1.192 1.623-.796 2.853-1.843 3.689-3.143.269-.418.495-.849.678-1.292.587-1.413-.529-2.966-2.059-2.966-.976 0-1.775.669-2.098 1.59-.185.528-.44.985-.767 1.373a5.14 5.14 0 0 1-2.335 1.577c-.937.316-1.964.476-3.084.476a8.759 8.759 0 0 1-2.324-.304 6.37 6.37 0 0 1-1.962-.889 4.433 4.433 0 0 1-1.343-1.447c-.331-.573-.496-1.229-.496-1.97 0-.997.337-1.807 1.011-2.428.674-.618 1.914-1.15 3.72-1.595l5.418-1.234c1.55-.323 2.803-.799 3.761-1.426.957-.625 1.691-1.338 2.204-2.133a7.554 7.554 0 0 0 1.051-2.477c.189-.855.283-1.674.283-2.455 0-1.51-.452-2.875-1.355-4.096-.903-1.218-2.191-2.186-3.862-2.899C4.334.357 2.332 0 0 0" style="fill:#002163;fill-opacity:1;fill-rule:nonzero;stroke:none" transform="translate(994.551 134.02)"/><path d="M0 0a1.97 1.97 0 0 0 1.971 1.971h18.521a1.97 1.97 0 1 0 0-3.942h-6.864V-25.08a2.184 2.184 0 0 0-4.368 0v23.109H1.971A1.97 1.97 0 0 0 0 0" style="fill:#002163;fill-opacity:1;fill-rule:nonzero;stroke:none" transform="translate(1040.182 161.687)"/><path d="M0 0h9.381l-4.69 13.444zm-7.235-8.834 9.054 25.082a2.123 2.123 0 0 0 1.997 1.402h1.789c.895 0 1.694-.561 1.997-1.403L16.64-8.835a2.054 2.054 0 1 0-3.864-1.39l-2.262 6.303H-1.071l-2.28-6.307a2.053 2.053 0 0 0-1.931-1.356h-.022a2.054 2.054 0 0 0-1.931 2.751" style="fill:#002163;fill-opacity:1;fill-rule:nonzero;stroke:none" transform="translate(1101.421 146.008)"/><path d="M0 0c2.035 0 3.613.44 4.731 1.325 1.119.882 1.678 2.145 1.678 3.79 0 1.618-.508 2.844-1.526 3.678-1.018.838-2.396 1.255-4.135 1.255h-6.854V0Zm7.785-15.73a2.08 2.08 0 0 0-1.913 1.266L1.213-3.497h-7.319v-10.154c0-1.148-.93-2.079-2.078-2.079h-.17a2.08 2.08 0 0 0-2.079 2.079v25.094c0 1.139.923 2.062 2.062 2.062h9.543c2.171 0 3.97-.334 5.399-1 1.428-.668 2.493-1.615 3.194-2.841.7-1.227 1.051-2.676 1.051-4.348 0-1.577-.266-2.89-.799-3.942C9.485.323 8.798-.533 7.956-1.194a11.066 11.066 0 0 0-2.659-1.557l4.392-10.07a2.078 2.078 0 0 0-1.904-2.909" style="fill:#002163;fill-opacity:1;fill-rule:nonzero;stroke:none" transform="translate(1166.401 150.154)"/><path d="M0 0a1.97 1.97 0 0 0 1.971 1.971h18.521a1.97 1.97 0 1 0 0-3.942h-6.863v-23.108a2.184 2.184 0 1 0-4.369 0v23.108H1.971A1.97 1.97 0 0 0 0 0" style="fill:#002163;fill-opacity:1;fill-rule:nonzero;stroke:none" transform="translate(1212.012 161.687)"/><path d="M0 0c0-2.277-.377-4.222-1.133-5.833-.753-1.609-1.936-2.839-3.547-3.689-1.611-.849-3.71-1.273-6.298-1.273-2.628 0-4.745.431-6.349 1.293-1.605.862-2.774 2.123-3.507 3.782-.735 1.656-1.103 3.678-1.103 6.065V16.65c0 1.212.982 2.194 2.193 2.194h.083a2.194 2.194 0 0 0 2.194-2.194V-.201c0-2.319.568-4.041 1.708-5.165 1.137-1.126 2.732-1.69 4.781-1.69 1.361 0 2.537.246 3.527.738.991.492 1.749 1.248 2.275 2.265.525 1.018.789 2.302.789 3.852V16.65a2.194 2.194 0 1 0 4.387 0Z" style="fill:#002163;fill-opacity:1;fill-rule:nonzero;stroke:none" transform="translate(1328.826 144.815)"/><path d="M0 0h6.207c1.86 0 3.376.535 4.549 1.607 1.174 1.071 1.758 2.497 1.758 4.276 0 1.807-.604 3.19-1.818 4.154-1.214.963-2.762 1.446-4.651 1.446H0Zm-4.387-12.051v25.025c0 1.108.899 2.007 2.007 2.007h8.123c2.089 0 3.96-.357 5.609-1.072 1.652-.713 2.952-1.765 3.904-3.152.95-1.39 1.424-3.094 1.424-5.116 0-1.943-.434-3.597-1.305-4.964-.868-1.367-2.082-2.417-3.637-3.143-1.557-.729-3.36-1.092-5.409-1.092H.02v-8.493a2.203 2.203 0 1 0-4.407 0" style="fill:#002163;fill-opacity:1;fill-rule:nonzero;stroke:none" transform="translate(1371.565 148.678)"/></g></svg>