<svg width="32" height="32" viewBox="0 0 32 32" fill="none" xmlns="http://www.w3.org/2000/svg">
<circle cx="16" cy="16" r="16" fill="#7323FF"/>
<path d="M23.108 25H9.198V6.904H16.244C17.752 6.904 18.9827 7.17267 19.936 7.71C20.872 8.23 21.6 8.94067 22.12 9.842C22.64 10.7433 22.9 11.74 22.9 12.832C22.9 14.184 22.484 15.3973 21.652 16.472C20.82 17.5293 19.7713 18.2313 18.506 18.578L23.108 25ZM10.836 7.866L17.908 17.746C19.0693 17.5033 20.0313 16.9227 20.794 16.004C21.5567 15.0853 21.938 14.028 21.938 12.832C21.938 11.8787 21.704 11.012 21.236 10.232C20.768 9.452 20.1093 8.854 19.26 8.438C18.4973 8.05667 17.5007 7.866 16.27 7.866H10.836ZM10.16 8.49V17.824H16.842L10.16 8.49ZM10.16 24.038H21.288L17.492 18.76L16.686 18.786H10.16V24.038Z" fill="white"/>
</svg>
