<svg width="180" height="61" viewBox="0 0 180 61" fill="none" xmlns="http://www.w3.org/2000/svg">
<g clip-path="url(#clip0_1_20)">
<path d="M73.336 20.336H77.88V54H73.336V20.336ZM75.64 12.976C74.7013 12.976 73.912 12.656 73.272 12.016C72.632 11.376 72.312 10.608 72.312 9.712C72.312 8.85867 72.632 8.112 73.272 7.472C73.912 6.832 74.7013 6.512 75.64 6.512C76.5787 6.512 77.368 6.832 78.008 7.472C78.648 8.06933 78.968 8.79466 78.968 9.648C78.968 10.5867 78.648 11.376 78.008 12.016C77.368 12.656 76.5787 12.976 75.64 12.976ZM99.9955 54.32C96.9662 54.32 94.6195 53.4667 92.9555 51.76C91.3342 50.0533 90.5235 47.6853 90.5235 44.656V6.512H95.0675V44.272C95.0675 46.2773 95.5368 47.8133 96.4755 48.88C97.4142 49.904 98.8222 50.416 100.7 50.416C101.894 50.416 102.918 50.224 103.772 49.84L104.092 53.616C102.769 54.0853 101.404 54.32 99.9955 54.32ZM119.746 54.32C116.716 54.32 114.37 53.4667 112.706 51.76C111.084 50.0533 110.274 47.6853 110.274 44.656V6.512H114.818V44.272C114.818 46.2773 115.287 47.8133 116.226 48.88C117.164 49.904 118.572 50.416 120.45 50.416C121.644 50.416 122.668 50.224 123.522 49.84L123.842 53.616C122.519 54.0853 121.154 54.32 119.746 54.32ZM130.024 20.336H134.568V54H130.024V20.336ZM132.328 12.976C131.389 12.976 130.6 12.656 129.96 12.016C129.32 11.376 129 10.608 129 9.712C129 8.85867 129.32 8.112 129.96 7.472C130.6 6.832 131.389 6.512 132.328 6.512C133.266 6.512 134.056 6.832 134.696 7.472C135.336 8.06933 135.656 8.79466 135.656 9.648C135.656 10.5867 135.336 11.376 134.696 12.016C134.056 12.656 133.266 12.976 132.328 12.976ZM161.611 50.288C163.702 50.288 165.622 49.9253 167.371 49.2C169.163 48.432 170.678 47.3227 171.915 45.872L174.475 48.816C172.982 50.608 171.126 51.9733 168.907 52.912C166.688 53.8507 164.235 54.32 161.547 54.32C158.091 54.32 155.019 53.5947 152.331 52.144C149.643 50.6507 147.552 48.6027 146.059 46C144.566 43.3973 143.819 40.4533 143.819 37.168C143.819 33.8827 144.523 30.9387 145.931 28.336C147.382 25.7333 149.366 23.7067 151.883 22.256C154.4 20.8053 157.259 20.08 160.459 20.08C163.446 20.08 166.134 20.7627 168.523 22.128C170.955 23.4933 172.875 25.392 174.283 27.824C175.734 30.256 176.502 33.0293 176.587 36.144L148.939 41.52C149.792 44.2507 151.328 46.4053 153.547 47.984C155.808 49.52 158.496 50.288 161.611 50.288ZM160.459 23.984C158.112 23.984 156 24.5387 154.123 25.648C152.288 26.7147 150.838 28.2293 149.771 30.192C148.747 32.112 148.235 34.3307 148.235 36.848C148.235 37.488 148.256 37.9573 148.299 38.256L172.043 33.648C171.531 30.832 170.23 28.528 168.139 26.736C166.048 24.9013 163.488 23.984 160.459 23.984Z" fill="#2E293B"/>
<g clip-path="url(#clip1_1_20)">
<path d="M8.39925 12.3465L13.5588 18.9884L38.4688 51.0625C37.5827 51.3604 36.6782 51.5998 35.7609 51.7793C32.0997 52.489 28.315 52.2214 24.7816 51.0031C21.2482 49.7847 18.0887 47.6578 15.6161 44.8331C13.1435 42.0083 11.4436 38.5838 10.6848 34.8986C9.92598 31.2135 10.1346 27.3956 11.2899 23.8231L8.33651 20.0214L7.89547 19.4544C5.87025 23.8606 5.09464 28.7496 5.65436 33.5811C6.21408 38.4126 8.08733 42.9984 11.0671 46.8317C14.0468 50.6651 18.0171 53.5967 22.5389 55.3025C27.0608 57.0083 31.9583 57.4219 36.6901 56.4976C37.3436 56.37 37.9897 56.2179 38.6283 56.0413C39.5328 55.7919 40.4912 55.8181 41.3828 56.1165C42.2744 56.4149 43.0594 56.9723 43.6391 57.7185L45.1973 59.723L50.4401 58.6994L45.8539 52.7976L44.3673 50.8866L42.9046 49.0031L16.6378 15.1916L13.6875 11.392L7.58556 3.53912L2.34535 4.56217L8.39925 12.3465Z" fill="#4831D4"/>
<path d="M12.8311 2.51504L46.641 46.0617L49.5964 49.8603L55.6702 57.6784L60.9078 56.6558L54.8765 48.8913L49.7169 42.2494L24.7741 10.1441C25.6662 9.84491 26.5767 9.6043 27.5 9.42375C31.1649 8.71063 34.9543 8.977 38.4919 10.1964C42.0295 11.4158 45.1924 13.5459 47.6664 16.3751C50.1405 19.2043 51.8398 22.6343 52.5955 26.3245C53.3512 30.0148 53.1372 33.8369 51.9746 37.4115L52.1611 37.6439L55.3634 41.7652C57.3888 37.3599 58.1651 32.4717 57.6064 27.6408C57.0477 22.8099 55.1758 18.2242 52.1976 14.3906C49.2193 10.557 45.2505 7.62458 40.7299 5.91741C36.2092 4.21024 31.3126 3.79476 26.5811 4.71689C25.9216 4.84565 25.2671 5.00029 24.6249 5.17674C23.7207 5.42593 22.7627 5.39992 21.8713 5.10198C20.9799 4.80404 20.1948 4.24745 19.6146 3.50213L18.0559 1.495L12.8311 2.51504Z" fill="#4831D4"/>
</g>
</g>
<defs>
<clipPath id="clip0_1_20">
<rect width="180" height="61" fill="white"/>
</clipPath>
<clipPath id="clip1_1_20">
<rect width="62.3497" height="52.2933" fill="white" transform="translate(11.947 66.2145) rotate(-101.047)"/>
</clipPath>
</defs>
</svg>
