<svg width="164" height="33" viewBox="0 0 164 33" fill="none" xmlns="http://www.w3.org/2000/svg">
<g style="mix-blend-mode:multiply">
<path d="M19.2127 31.1406C17.5687 32.7793 14.9051 32.7793 13.2611 31.1406C11.6171 29.5019 11.6171 26.8469 13.2611 25.2082C17.2709 21.2114 21.2806 17.2146 25.2904 13.2178C26.9344 11.5791 29.5981 11.5791 31.2421 13.2178C32.8861 14.8565 32.8861 17.5115 31.2421 19.1502L19.2127 31.1406Z" fill="#C5A8CD"/>
</g>
<g style="mix-blend-mode:multiply">
<path d="M28.2632 8.3933C30.5889 8.3933 32.4735 6.5148 32.4735 4.19665C32.4735 1.8785 30.5889 0 28.2632 0H4.21027C1.8846 0 0 1.8785 0 4.19665C0 6.5148 1.8846 8.3933 4.21027 8.3933H28.2632Z" fill="#D786B3"/>
</g>
<g style="mix-blend-mode:multiply">
<path d="M20.4501 28.1718C20.4501 30.4899 18.5655 32.3684 16.2398 32.3684C13.9141 32.3684 12.0295 30.4899 12.0295 28.1718V4.19665C12.0295 1.8785 13.9141 0 16.2398 0C18.5655 0 20.4501 1.8785 20.4501 4.19665V28.1718Z" fill="#CF99C1"/>
</g>
<g style="mix-blend-mode:multiply">
<path d="M28.2632 20.3835C30.5889 20.3835 32.4735 18.505 32.4735 16.1869C32.4735 13.8687 30.5889 11.9902 28.2632 11.9902H4.21027C1.8846 11.9902 0 13.8687 0 16.1869C0 18.505 1.8846 20.3835 4.21027 20.3835H28.2632Z" fill="#B9B3D8"/>
</g>
<g style="mix-blend-mode:multiply">
<path d="M1.23179 13.2181C-0.412223 14.8568 -0.412223 17.5118 1.23179 19.1505C2.8758 20.7892 5.53944 20.7892 7.18345 19.1505L19.2128 7.16582C20.8568 5.52712 20.8568 2.8721 19.2128 1.23341C17.5688 -0.405278 14.9051 -0.405278 13.2611 1.23341C9.25135 5.23022 5.24157 9.22703 1.23179 13.2238V13.2181Z" fill="#AABCE1"/>
</g>
<path d="M162.196 4.67627H147.76C146.764 4.67627 145.956 5.48134 145.956 6.47483C145.956 7.46832 146.764 8.2734 147.76 8.2734H153.174V22.6619C153.174 23.6554 153.981 24.4605 154.978 24.4605C155.975 24.4605 156.782 23.6554 156.782 22.6619V8.2734H162.196C163.192 8.2734 164 7.46832 164 6.47483C164 5.48134 163.192 4.67627 162.196 4.67627Z" fill="#6569AB"/>
<path d="M147.761 15.4673H142.347C141.351 15.4673 140.543 16.2724 140.543 17.2658C140.543 18.2593 141.351 19.0644 142.347 19.0644H147.761C148.757 19.0644 149.565 18.2593 149.565 17.2658C149.565 16.2724 148.757 15.4673 147.761 15.4673Z" fill="#6569AB"/>
<path d="M75.2351 10.0718C74.2384 10.0718 73.4307 10.8768 73.4307 11.8703V17.266C73.4307 19.4529 71.655 21.2229 69.4611 21.2229C67.2671 21.2229 65.4914 19.4529 65.4914 17.266V11.8703C65.4914 10.8768 64.6837 10.0718 63.687 10.0718C62.6903 10.0718 61.8826 10.8768 61.8826 11.8703V17.266C61.8826 21.4398 65.2737 24.82 69.4611 24.82C73.6484 24.82 77.0395 21.4398 77.0395 17.266V11.8703C77.0395 10.8768 76.2319 10.0718 75.2351 10.0718Z" fill="#6569AB"/>
<path d="M138.017 9.71191C133.829 9.71191 130.438 13.0921 130.438 17.2659V22.6616C130.438 23.6551 131.246 24.4601 132.243 24.4601C133.239 24.4601 134.047 23.6551 134.047 22.6616V17.2659C134.047 15.0791 135.823 13.309 138.017 13.309C139.013 13.309 139.821 12.504 139.821 11.5105C139.821 10.517 139.013 9.71191 138.017 9.71191Z" fill="#6569AB"/>
<path d="M54.0348 12.7668H48.8049C47.5619 12.7668 46.548 11.7619 46.548 10.5172C46.548 9.27245 47.5562 8.26754 48.8049 8.26754H57.1968C58.1936 8.26754 59.0012 7.46246 59.0012 6.46897C59.0012 5.47548 58.1936 4.67041 57.1968 4.67041H48.8049C45.5685 4.67041 42.9392 7.28546 42.9392 10.5172C42.9392 13.7489 45.5627 16.3639 48.8049 16.3639H54.0348C55.2779 16.3639 56.2918 17.3688 56.2918 18.6136C56.2918 19.8583 55.2836 20.8632 54.0348 20.8632H45.1045C44.1078 20.8632 43.3001 21.6683 43.3001 22.6617C43.3001 23.6552 44.1078 24.4603 45.1045 24.4603H54.0348C57.2713 24.4603 59.9006 21.8453 59.9006 18.6136C59.9006 15.3819 57.277 12.7668 54.0348 12.7668Z" fill="#6569AB"/>
<path d="M79.0215 17.266V28.0574C79.0215 29.0509 79.8292 29.8559 80.8259 29.8559C81.8226 29.8559 82.6303 29.0509 82.6303 28.0574V23.7008C89.2808 27.7776 97.0254 20.3778 93.2161 13.5832C89.4068 6.78865 79.0215 9.48364 79.0215 17.266ZM86.6 21.2228C84.406 21.2228 82.6303 19.4528 82.6303 17.266C82.6303 15.0792 84.406 13.3092 86.6 13.3092C88.7939 13.3092 90.5697 15.0792 90.5697 17.266C90.5697 19.4528 88.7939 21.2228 86.6 21.2228Z" fill="#6569AB"/>
<path d="M96.1604 17.266V28.0574C96.1604 29.0509 96.9681 29.8559 97.9648 29.8559C98.9615 29.8559 99.7692 29.0509 99.7692 28.0574V23.7008C106.42 27.7776 114.164 20.3778 110.355 13.5832C106.546 6.78865 96.1604 9.48364 96.1604 17.266ZM103.739 21.2228C101.545 21.2228 99.7692 19.4528 99.7692 17.266C99.7692 15.0792 101.545 13.3092 103.739 13.3092C105.933 13.3092 107.709 15.0792 107.709 17.266C107.709 19.4528 105.933 21.2228 103.739 21.2228Z" fill="#6569AB"/>
<path d="M120.878 9.71191C116.69 9.71191 113.299 13.0921 113.299 17.2659C113.299 21.4397 116.69 24.8198 120.878 24.8198C125.065 24.8198 128.456 21.4397 128.456 17.2659C128.456 13.0921 125.065 9.71191 120.878 9.71191ZM120.878 21.2227C118.684 21.2227 116.908 19.4527 116.908 17.2659C116.908 15.0791 118.684 13.309 120.878 13.309C123.072 13.309 124.847 15.0791 124.847 17.2659C124.847 19.4527 123.072 21.2227 120.878 21.2227Z" fill="#6569AB"/>
</svg>
