<?xml version="1.0" encoding="UTF-8"?>
<svg id="_레이어_2" data-name="레이어 2" xmlns="http://www.w3.org/2000/svg" viewBox="0 0 141.31 37.88">
  <defs>
    <style>
      .cls-1 {
        fill: #4831d4;
      }
    </style>
  </defs>
  <g id="_레이어_1-2" data-name="레이어 1">
    <g>
      <path class="cls-1" d="M0,18.82C0,8.5,8.45,0,18.87,0s18.77,8.5,18.77,18.82c0,5.81-2.69,11.04-6.86,14.45,1.34,1.68,2.54,3.31,4.8,3.31,.58,0,1.2-.14,1.97-.77,.24-.24,.48-.14,.58,.05l.24,.77c.1,.24-.05,.43-.29,.58-1.2,.58-1.97,.67-2.54,.67-2.83,0-4.27-2.02-5.81-3.79-3.07,2.21-6.82,3.5-10.85,3.5C8.45,37.59,0,29.14,0,18.82Zm28.85,14.31c-1.06-1.2-2.35-2.06-4.22-1.87-.19,0-.38-.19-.38-.34v-.82c0-.19,.24-.34,.38-.34,2.54,0,4.08,1.15,5.28,2.54,3.89-3.22,6.38-8.06,6.38-13.49C36.29,9.17,28.37,1.3,18.87,1.3c-4.42,0-7.49,1.68-7.49,1.73v31.54s3.07,1.73,7.49,1.73c3.7,0,7.15-1.15,9.98-3.17Z"/>
      <path class="cls-1" d="M43.2,2.45c0-1.15,1.82-1.78,4.8-1.78s4.85,.62,4.85,1.78c0,1.25-1.82,1.87-4.85,1.87s-4.8-.62-4.8-1.87Zm.24,33.84c0-1.01,.05-2.26,.05-5.66V14.98c0-3.22-.05-4.56-.05-5.57,0-.38,.19-.53,.48-.53h8.21c.29,0,.48,.24,.48,.53,0,1.06-.05,2.4-.05,5.52v15.5c0,3.5,.05,4.9,.05,5.86,0,.38-.19,.53-.48,.53h-8.21c-.34,0-.48-.24-.48-.53Z"/>
      <path class="cls-1" d="M60.14,36.05V6.96c0-3.65-.05-4.8-.05-5.66,0-.29,.19-.48,.43-.48h8.16c.34,0,.53,.19,.53,.48,0,1.01-.05,2.02-.05,5.71v28.51s.19,.1,.77,.1h.1c1.68,0,2.4-.19,2.74-.19,.24,0,.34,.19,.34,.34v.82c0,.14-.1,.34-.34,.34-.38,0-1.1-.1-3.22-.1h-8.78c-.43,0-.62-.34-.62-.77Z"/>
      <path class="cls-1" d="M78.53,36.05V6.96c0-3.65-.05-4.8-.05-5.66,0-.29,.19-.48,.43-.48h8.16c.34,0,.53,.19,.53,.48,0,1.01-.05,2.02-.05,5.71v28.51s.19,.1,.77,.1h.1c1.68,0,2.4-.19,2.74-.19,.24,0,.34,.19,.34,.34v.82c0,.14-.1,.34-.34,.34-.38,0-1.1-.1-3.22-.1h-8.79c-.43,0-.62-.34-.62-.77Z"/>
      <path class="cls-1" d="M96.82,2.45c0-1.15,1.82-1.78,4.8-1.78s4.85,.62,4.85,1.78c0,1.25-1.82,1.87-4.85,1.87s-4.8-.62-4.8-1.87Zm.24,33.84c0-1.01,.05-2.26,.05-5.66V14.98c0-3.22-.05-4.56-.05-5.57,0-.38,.19-.53,.48-.53h8.21c.29,0,.48,.24,.48,.53,0,1.06-.05,2.4-.05,5.52v15.5c0,3.5,.05,4.9,.05,5.86,0,.38-.19,.53-.48,.53h-8.21c-.34,0-.48-.24-.48-.53Z"/>
      <path class="cls-1" d="M112.17,22.85c0-8.02,6.48-14.55,14.64-14.55s14.5,6.48,14.5,14.31c0,.38-.19,.86-.67,.86h-19.06v11.62c0,.1,2.16,1.15,5.23,1.15,5.18,0,9.7-2.64,11.71-6.67,.1-.24,.29-.34,.48-.24l.67,.48c.19,.14,.14,.38,.05,.58-2.5,4.27-7.44,7.06-12.91,7.06-8.11,0-14.64-6.58-14.64-14.59Zm14.64-13.35c-3.07,0-5.23,1.06-5.23,1.15v11.57h18.43c-.14-6.86-6.14-12.72-13.2-12.72Z"/>
    </g>
  </g>
</svg>