<svg width="105" height="45" viewBox="0 0 105 45" fill="none" xmlns="http://www.w3.org/2000/svg">
<path d="M0.870117 32.14H3.50012C4.55012 32.14 5.39012 32.43 6.01012 33C6.63012 33.57 6.94012 34.31 6.94012 35.21C6.94012 36.11 6.63012 36.83 6.01012 37.39C5.39012 37.95 4.58012 38.23 3.59012 38.23H2.28012V41.58H0.870117V32.14ZM2.28012 37.04H3.48012C4.14012 37.04 4.65012 36.87 5.00012 36.54C5.35012 36.21 5.53012 35.76 5.53012 35.21C5.53012 34.63 5.35012 34.17 5.00012 33.84C4.65012 33.51 4.13012 33.34 3.46012 33.34H2.29012V37.05L2.28012 37.04Z" fill="#BCBCBC"/>
<path d="M8.47996 36.17V34.84C9.01996 34.52 9.72996 34.36 10.61 34.36C12.42 34.36 13.32 35.26 13.32 37.06V41.57H12V40.73C11.65 41.33 11.02 41.63 10.13 41.63C9.47996 41.63 8.94996 41.44 8.54996 41.05C8.14996 40.66 7.95996 40.17 7.95996 39.57C7.95996 38.89 8.20996 38.36 8.70996 37.98C9.20996 37.6 9.90996 37.41 10.81 37.41H11.96V37C11.96 36.52 11.85 36.15 11.62 35.9C11.39 35.65 11.02 35.53 10.49 35.53C9.74996 35.53 9.08996 35.74 8.48996 36.16L8.47996 36.17ZM11.96 38.41H10.92C10.41 38.41 10.03 38.51 9.76996 38.72C9.50996 38.93 9.37996 39.19 9.37996 39.5C9.37996 39.81 9.47996 40.08 9.67996 40.27C9.87996 40.46 10.17 40.55 10.55 40.55C10.99 40.55 11.33 40.43 11.58 40.18C11.83 39.93 11.96 39.61 11.96 39.21V38.41Z" fill="#BCBCBC"/>
<path d="M17.04 41.42L14.29 34.48H15.78L16.64 36.79L17.72 39.79C17.8 39.51 18.13 38.51 18.7 36.79L19.48 34.48H20.9L18.4 41.38C17.74 43.2 16.72 44.11 15.36 44.11C15.11 44.11 14.9 44.09 14.73 44.04V42.86C14.87 42.9 15.03 42.92 15.19 42.92C16.07 42.92 16.69 42.42 17.05 41.42H17.04Z" fill="#BCBCBC"/>
<path d="M23.34 34.48V35.61C23.73 34.79 24.38 34.38 25.29 34.38C26.33 34.38 26.99 34.84 27.28 35.75C27.47 35.31 27.75 34.97 28.11 34.74C28.47 34.51 28.88 34.38 29.34 34.38C30.05 34.38 30.59 34.59 30.96 35.02C31.33 35.45 31.51 36.04 31.51 36.8V41.57H30.17V37.09C30.17 36.07 29.77 35.56 28.97 35.56C28.57 35.56 28.21 35.74 27.9 36.11C27.59 36.47 27.43 37.01 27.43 37.72V41.57H26.09V37.09C26.09 36.07 25.69 35.56 24.88 35.56C24.49 35.56 24.13 35.74 23.82 36.11C23.51 36.48 23.34 37.01 23.34 37.72V41.57H22V34.47H23.34V34.48Z" fill="#BCBCBC"/>
<path d="M38.4802 39.97V41.2C37.9702 41.5 37.3002 41.65 36.4602 41.65C35.3902 41.65 34.5302 41.32 33.9002 40.66C33.2702 40 32.9502 39.13 32.9502 38.06C32.9502 36.92 33.2402 36.03 33.8202 35.38C34.4002 34.73 35.1402 34.41 36.0402 34.41C36.9402 34.41 37.6202 34.69 38.1402 35.26C38.6602 35.82 38.9202 36.64 38.9202 37.7C38.9202 37.99 38.8902 38.29 38.8402 38.61H34.3002C34.3902 39.23 34.6502 39.7 35.0602 40.02C35.4802 40.35 36.0102 40.51 36.6402 40.51C37.3802 40.51 37.9902 40.33 38.4802 39.98V39.97ZM37.6202 37.52V37.27C37.6002 36.74 37.4602 36.31 37.2002 36C36.9402 35.69 36.5602 35.53 36.0702 35.53C35.6102 35.53 35.2202 35.7 34.9002 36.04C34.5702 36.38 34.3702 36.87 34.2902 37.52H37.6302H37.6202Z" fill="#BCBCBC"/>
<path d="M41.8202 34.48V35.7C42.2302 34.82 42.9502 34.38 43.9802 34.38C44.6602 34.38 45.2002 34.59 45.6002 35.02C46.0002 35.45 46.2002 36.03 46.2002 36.77V41.57H44.8602V37.09C44.8602 36.6 44.7402 36.22 44.5002 35.96C44.2602 35.7 43.9402 35.57 43.5402 35.57C43.0702 35.57 42.6602 35.76 42.3302 36.14C41.9902 36.52 41.8302 37.05 41.8302 37.73V41.58H40.4902V34.48H41.8302H41.8202Z" fill="#BCBCBC"/>
<path d="M49.7301 35.54V39.45C49.7301 40.13 50.0501 40.47 50.6901 40.47C51.0601 40.47 51.3801 40.37 51.6301 40.16V41.39C51.3301 41.56 50.9601 41.64 50.5301 41.64C49.1001 41.64 48.3901 40.9 48.3901 39.41V35.53H47.3101V34.47H48.3901V32.73H49.7401V34.47H51.5501V35.53H49.7401L49.7301 35.54Z" fill="#BCBCBC"/>
<path d="M57.0402 34.72V35.97C56.5902 35.7 56.0202 35.56 55.3202 35.56C55.0002 35.56 54.7502 35.63 54.5602 35.78C54.3702 35.93 54.2802 36.13 54.2802 36.37C54.2802 36.44 54.2802 36.5 54.3002 36.56C54.3102 36.62 54.3402 36.68 54.3702 36.74C54.4002 36.8 54.4402 36.85 54.4702 36.89C54.5002 36.93 54.5502 36.98 54.6302 37.02C54.7002 37.07 54.7602 37.11 54.8002 37.14C54.8402 37.17 54.9102 37.21 55.0102 37.26C55.1102 37.31 55.1802 37.34 55.2202 37.36C55.2702 37.38 55.3402 37.42 55.4602 37.47C55.5702 37.52 55.6502 37.56 55.7002 37.57C56.2402 37.81 56.6602 38.09 56.9602 38.39C57.2602 38.69 57.4202 39.1 57.4202 39.6C57.4202 40.23 57.2002 40.73 56.7602 41.09C56.3202 41.45 55.7302 41.63 54.9902 41.63C54.1702 41.63 53.4902 41.49 52.9402 41.21V39.91C53.5802 40.31 54.2402 40.51 54.9202 40.51C55.2702 40.51 55.5502 40.43 55.7502 40.29C55.9502 40.14 56.0402 39.95 56.0402 39.7C56.0402 39.49 55.9602 39.31 55.8102 39.15C55.6502 38.99 55.5002 38.87 55.3402 38.79C55.1802 38.71 54.9102 38.59 54.5302 38.42C53.4502 37.96 52.9102 37.29 52.9102 36.4C52.9102 35.78 53.1402 35.28 53.5902 34.93C54.0502 34.58 54.6102 34.4 55.3002 34.4C56.0502 34.4 56.6302 34.5 57.0502 34.71L57.0402 34.72Z" fill="#BCBCBC"/>
<path d="M62.2202 32.14H64.8502C65.9002 32.14 66.7402 32.43 67.3602 33C67.9802 33.57 68.2902 34.31 68.2902 35.21C68.2902 36.11 67.9802 36.83 67.3602 37.39C66.7402 37.95 65.9302 38.23 64.9402 38.23H63.6302V41.58H62.2202V32.14ZM63.6202 37.04H64.8202C65.4802 37.04 65.9902 36.87 66.3402 36.54C66.6902 36.21 66.8702 35.76 66.8702 35.21C66.8702 34.63 66.6902 34.17 66.3402 33.84C65.9902 33.51 65.4702 33.34 64.8002 33.34H63.6302V37.05L63.6202 37.04Z" fill="#BCBCBC"/>
<path d="M69.8301 36.17V34.84C70.3701 34.52 71.0801 34.36 71.9601 34.36C73.7701 34.36 74.6701 35.26 74.6701 37.06V41.57H73.3501V40.73C73.0001 41.33 72.3701 41.63 71.4801 41.63C70.8301 41.63 70.3001 41.44 69.9001 41.05C69.5001 40.66 69.3101 40.17 69.3101 39.57C69.3101 38.89 69.5601 38.36 70.0601 37.98C70.5601 37.6 71.2601 37.41 72.1601 37.41H73.3101V37C73.3101 36.52 73.2001 36.15 72.9701 35.9C72.7401 35.65 72.3701 35.53 71.8401 35.53C71.1001 35.53 70.4401 35.74 69.8401 36.16L69.8301 36.17ZM73.3101 38.41H72.2701C71.7601 38.41 71.3801 38.51 71.1201 38.72C70.8601 38.93 70.7301 39.19 70.7301 39.5C70.7301 39.81 70.8301 40.08 71.0301 40.27C71.2301 40.46 71.5201 40.55 71.9001 40.55C72.3401 40.55 72.6801 40.43 72.9301 40.18C73.1801 39.93 73.3101 39.61 73.3101 39.21V38.41Z" fill="#BCBCBC"/>
<path d="M77.81 34.48V35.73C78.15 34.85 78.75 34.41 79.62 34.41C79.75 34.41 79.89 34.42 80.04 34.45V35.79C79.85 35.71 79.63 35.66 79.4 35.66C78.94 35.66 78.55 35.87 78.25 36.29C77.95 36.71 77.8 37.21 77.8 37.79V41.57H76.46V34.47H77.8L77.81 34.48Z" fill="#BCBCBC"/>
<path d="M82.8199 35.54V39.45C82.8199 40.13 83.1399 40.47 83.7799 40.47C84.1499 40.47 84.4699 40.37 84.7199 40.16V41.39C84.4199 41.56 84.0499 41.64 83.6199 41.64C82.1899 41.64 81.4799 40.9 81.4799 39.41V35.53H80.3999V34.47H81.4799V32.73H82.8299V34.47H84.6399V35.53H82.8299L82.8199 35.54Z" fill="#BCBCBC"/>
<path d="M87.5302 34.48V35.7C87.9402 34.82 88.6602 34.38 89.6902 34.38C90.3702 34.38 90.9102 34.59 91.3102 35.02C91.7102 35.45 91.9102 36.03 91.9102 36.77V41.57H90.5702V37.09C90.5702 36.6 90.4502 36.22 90.2102 35.96C89.9702 35.7 89.6502 35.57 89.2502 35.57C88.7802 35.57 88.3702 35.76 88.0402 36.14C87.7002 36.52 87.5402 37.05 87.5402 37.73V41.58H86.2002V34.48H87.5402H87.5302Z" fill="#BCBCBC"/>
<path d="M98.8601 39.97V41.2C98.3501 41.5 97.6801 41.65 96.8401 41.65C95.7701 41.65 94.9101 41.32 94.2801 40.66C93.6501 40 93.3301 39.13 93.3301 38.06C93.3301 36.92 93.6201 36.03 94.2001 35.38C94.7801 34.73 95.5201 34.41 96.4201 34.41C97.3201 34.41 98.0001 34.69 98.5201 35.26C99.0401 35.82 99.3001 36.64 99.3001 37.7C99.3001 37.99 99.2701 38.29 99.2201 38.61H94.6801C94.7701 39.23 95.0301 39.7 95.4401 40.02C95.8601 40.35 96.3901 40.51 97.0201 40.51C97.7601 40.51 98.3701 40.33 98.8601 39.98V39.97ZM98.0001 37.52V37.27C97.9801 36.74 97.8401 36.31 97.5801 36C97.3201 35.69 96.9401 35.53 96.4501 35.53C95.9901 35.53 95.6001 35.7 95.2801 36.04C94.9501 36.38 94.7501 36.87 94.6701 37.52H98.0101H98.0001Z" fill="#BCBCBC"/>
<path d="M102.2 34.48V35.73C102.54 34.85 103.14 34.41 104.01 34.41C104.14 34.41 104.28 34.42 104.43 34.45V35.79C104.24 35.71 104.02 35.66 103.79 35.66C103.33 35.66 102.94 35.87 102.64 36.29C102.34 36.71 102.19 37.21 102.19 37.79V41.57H100.85V34.47H102.19L102.2 34.48Z" fill="#BCBCBC"/>
<path d="M3.52 10.6H5.5C6.54 10.68 7.58 10.35 8.38 9.67C8.7 9.34 8.95 8.95 9.12 8.52C9.28 8.09 9.36 7.63 9.33 7.17C9.35 6.72 9.28 6.27 9.12 5.84C8.96 5.42 8.7 5.04 8.38 4.72C7.59 4.07 6.6 3.76 5.59 3.83H3.52V10.6ZM0 0.93H5.89C7.75 0.84 9.57 1.46 10.99 2.68C11.61 3.24 12.11 3.93 12.44 4.71C12.77 5.48 12.93 6.32 12.9 7.17C12.94 8.04 12.78 8.9 12.44 9.7C12.1 10.5 11.58 11.21 10.93 11.78C9.54 12.94 7.78 13.55 5.97 13.49H3.51V19.95H0V0.93ZM22.63 13.79H20.9C20.19 13.74 19.48 13.94 18.89 14.34C18.67 14.5 18.49 14.71 18.37 14.95C18.25 15.19 18.19 15.46 18.19 15.73C18.19 16.93 18.88 17.53 20.26 17.53C20.58 17.55 20.9 17.5 21.2 17.39C21.5 17.28 21.77 17.1 22 16.87C22.21 16.64 22.38 16.36 22.49 16.07C22.6 15.77 22.65 15.46 22.63 15.14V13.79ZM15.75 9.5V6.37C17.16 5.63 18.74 5.29 20.33 5.38C24.17 5.38 26.08 7.18 26.08 10.79V19.93H22.76V18.21C22.11 19.43 20.88 20.04 19.07 20.04C18.49 20.07 17.9 19.98 17.35 19.78C16.8 19.58 16.3 19.26 15.87 18.86C15.48 18.47 15.17 18 14.97 17.49C14.77 16.98 14.67 16.42 14.69 15.87C14.67 15.26 14.79 14.64 15.05 14.09C15.31 13.53 15.71 13.05 16.2 12.69C17.49 11.84 19.02 11.43 20.56 11.53H22.63V10.66C22.65 10.33 22.61 10 22.5 9.69C22.39 9.38 22.23 9.09 22.01 8.85C21.42 8.38 20.67 8.15 19.92 8.23C18.44 8.23 16.99 8.66 15.75 9.5ZM33.49 19.66L27.9 5.65H31.61L33.26 10.22C33.76 11.57 34.17 12.71 34.48 13.63C34.79 14.55 34.98 15.13 35.05 15.38L35.13 15.77C35.32 15.11 35.91 13.26 36.92 10.21L38.4 5.64H41.92L36.81 19.54C35.4 23.36 33.24 25.27 30.33 25.27C29.86 25.27 29.39 25.23 28.93 25.13V22.34C29.24 22.42 29.56 22.45 29.88 22.45C31.57 22.45 32.78 21.52 33.49 19.66ZM50.86 17.23C51.33 17.24 51.8 17.14 52.23 16.94C52.66 16.74 53.03 16.44 53.32 16.06C54.01 15.11 54.34 13.95 54.27 12.77C54.34 11.6 54.01 10.43 53.32 9.48C53.04 9.11 52.67 8.81 52.26 8.61C51.84 8.41 51.38 8.3 50.92 8.31C50.45 8.31 49.98 8.4 49.55 8.59C49.12 8.78 48.73 9.06 48.41 9.41C47.64 10.32 47.26 11.5 47.35 12.69C47.27 13.9 47.64 15.09 48.38 16.05C48.68 16.42 49.06 16.72 49.49 16.92C49.92 17.12 50.39 17.23 50.86 17.23ZM47.35 5.64V7.84C47.79 7.08 48.43 6.46 49.19 6.04C49.95 5.62 50.81 5.41 51.68 5.44C52.52 5.41 53.35 5.57 54.11 5.92C54.87 6.27 55.55 6.79 56.08 7.44C57.23 8.95 57.8 10.82 57.71 12.71C57.78 14.62 57.21 16.49 56.08 18.03C55.56 18.71 54.89 19.26 54.12 19.62C53.35 19.99 52.5 20.16 51.65 20.13C50.79 20.17 49.94 19.97 49.18 19.56C48.42 19.15 47.79 18.54 47.35 17.79V25.32H44V5.64H47.35ZM60.73 0H64.08V19.94H60.73V0ZM76.37 11.62V11.2C76.37 10.4 76.11 9.62 75.63 8.99C75.38 8.71 75.07 8.48 74.73 8.34C74.38 8.2 74.01 8.13 73.64 8.16C73.25 8.16 72.87 8.23 72.51 8.39C72.15 8.54 71.83 8.77 71.56 9.05C70.92 9.76 70.52 10.67 70.43 11.63H76.38L76.37 11.62ZM78.66 16.21V19.14C77.35 19.84 75.87 20.16 74.39 20.07C73.41 20.12 72.43 19.97 71.51 19.62C70.59 19.27 69.75 18.73 69.05 18.04C68.39 17.34 67.88 16.52 67.55 15.62C67.21 14.72 67.06 13.76 67.1 12.8C66.99 10.84 67.65 8.91 68.94 7.44C69.53 6.81 70.24 6.3 71.04 5.97C71.84 5.64 72.69 5.47 73.55 5.49C74.36 5.45 75.16 5.58 75.92 5.87C76.68 6.16 77.36 6.61 77.94 7.19C79.02 8.32 79.56 9.96 79.56 12.12C79.55 12.8 79.48 13.48 79.36 14.15H70.48C70.67 15.11 71.22 15.95 72 16.52C72.86 17.09 73.87 17.37 74.89 17.34C76.23 17.39 77.56 16.99 78.66 16.21Z" fill="#BCBCBC"/>
</svg>
