<svg width="46" height="46" viewBox="0 0 46 46" fill="none" xmlns="http://www.w3.org/2000/svg">
<g clip-path="url(#clip0_46_2312)">
<path d="M23 46C35.7025 46 46 35.7025 46 23C46 10.2975 35.7025 0 23 0C10.2975 0 0 10.2975 0 23C0 35.7025 10.2975 46 23 46Z" fill="#FF4D71"/>
<path d="M24.8681 14.3242H21.1081L21.4261 26.7002H24.5551L24.8681 14.3242ZM20.9621 30.1692C20.9585 30.4395 21.009 30.7077 21.1107 30.9581C21.2125 31.2086 21.3633 31.4361 21.5544 31.6272C21.7455 31.8184 21.9729 31.9694 22.2232 32.0712C22.4736 32.173 22.7418 32.2237 23.0121 32.2202C23.5513 32.2121 24.0658 31.9927 24.4449 31.6091C24.8239 31.2255 25.0373 30.7085 25.0391 30.1692C25.0362 29.6326 24.8217 29.1188 24.4421 28.7395C24.0626 28.3601 23.5487 28.1458 23.0121 28.1432C22.7431 28.1365 22.4755 28.1841 22.2253 28.2832C21.9751 28.3823 21.7475 28.5309 21.5561 28.7201C21.3647 28.9092 21.2134 29.1351 21.1113 29.3841C21.0093 29.6331 20.9585 29.9001 20.9621 30.1692Z" fill="white"/>
</g>
<defs>
<clipPath id="clip0_46_2312">
<rect width="46" height="46" fill="white"/>
</clipPath>
</defs>
</svg>
