<svg data-name="구성 요소 13 – 8" xmlns="http://www.w3.org/2000/svg" width="18" height="18" viewBox="0 0 18 18">
    <g data-name="그룹 31196">
        <path data-name="패스 5594" d="m2613.967 1092.363-.247 2.358a1.065 1.065 0 0 0 1.17 1.168l2.358-.246a2 2 0 0 0 1.2-.574l5.292-5.293-3.912-3.912-5.293 5.293a1.994 1.994 0 0 0-.568 1.206z" transform="translate(-2611.206 -1080.145)" style="fill:#b0b5c2"/>
        <path data-name="패스 5595" d="M2625.44 1087.478a1.44 1.44 0 0 0 .378-.667 1.46 1.46 0 0 0 .057-.38 1.488 1.488 0 0 0-.109-.558 1.463 1.463 0 0 0-.325-.489l-1.817-1.818a1.548 1.548 0 0 0-.233-.19 1.457 1.457 0 0 0-.531-.216 1.5 1.5 0 0 0-.438-.013 1.375 1.375 0 0 0-.225.041 1.543 1.543 0 0 0-.667.377l-1.663 1.664 3.912 3.912z" transform="translate(-2610.122 -1080.625)" style="fill:#b0b5c2"/>
    </g>
    <path data-name="사각형 5669" style="fill:none" d="M0 0h18v18H0z"/>
</svg>
