<svg width="11" height="27" viewBox="0 0 11 27" fill="none" xmlns="http://www.w3.org/2000/svg">
<path d="M10.1405 22.1972C10.0786 22.1347 10.0048 22.0851 9.92358 22.0513C9.84234 22.0174 9.7552 22 9.6672 22C9.57919 22 9.49205 22.0174 9.41081 22.0513C9.32957 22.0851 9.25584 22.1347 9.19386 22.1972L6.14053 25.2505C6.07855 25.313 6.00482 25.3626 5.92358 25.3965C5.84234 25.4303 5.7552 25.4477 5.6672 25.4477C5.57919 25.4477 5.49205 25.4303 5.41081 25.3965C5.32957 25.3626 5.25584 25.313 5.19386 25.2505L2.14053 22.1972C2.07855 22.1347 2.00482 22.0851 1.92358 22.0513C1.84234 22.0174 1.7552 22 1.6672 22C1.57919 22 1.49205 22.0174 1.41081 22.0513C1.32957 22.0851 1.25584 22.1347 1.19386 22.1972C1.06969 22.3221 1 22.4911 1 22.6672C1 22.8433 1.06969 23.0123 1.19386 23.1372L4.25386 26.1972C4.62886 26.5717 5.13719 26.7821 5.6672 26.7821C6.1972 26.7821 6.70553 26.5717 7.08053 26.1972L10.1405 23.1372C10.2647 23.0123 10.3344 22.8433 10.3344 22.6672C10.3344 22.4911 10.2647 22.3221 10.1405 22.1972Z" fill="black"/>
<rect x="0.75" y="0.75" width="9.5" height="18.5" rx="4.75" stroke="black" stroke-width="1.5"/>
<line x1="5.75" y1="4.75" x2="5.75" y2="6.25" stroke="black" stroke-width="1.5" stroke-linecap="round"/>
</svg>
